<svg width="64" height="64" viewBox="0 0 64 64" fill="none" xmlns="http://www.w3.org/2000/svg">
    <circle cx="32" cy="32" r="32" fill="#555555" fill-opacity="0.08"/>
    <path d="M15.0995 49.0069C14.1949 48.2945 13.6846 47.172 13.8816 46.0374C14.2858 43.7086 15.4064 41.5462 17.1094 39.8646C19.2452 37.7558 22.1254 36.5726 25.1269 36.571H38.8411C41.8426 36.5726 44.7228 37.7558 46.8586 39.8646C48.5616 41.5462 49.6822 43.7086 50.0864 46.0374C50.2834 47.172 49.7731 48.2945 48.8685 49.0069C44.0703 52.7856 38.1263 54.8569 31.984 54.8569C25.8417 54.8569 19.8977 52.7856 15.0995 49.0069ZM42.2697 19.4283C42.2697 21.4626 41.6664 23.4512 40.5362 25.1427C39.406 26.8341 37.7996 28.1525 35.9202 28.931C34.0407 29.7095 31.9726 29.9132 29.9774 29.5163C27.9821 29.1194 26.1494 28.1398 24.7109 26.7013C23.2725 25.2628 22.2928 23.4301 21.896 21.4349C21.4991 19.4397 21.7028 17.3716 22.4813 15.4921C23.2598 13.6126 24.5781 12.0062 26.2696 10.876C27.9611 9.74582 29.9497 9.14258 31.984 9.14258C34.7119 9.14258 37.3281 10.2262 39.2571 12.1552C41.186 14.0841 42.2697 16.7003 42.2697 19.4283Z" fill="#C5C5C5"/>
</svg>
